<mxfile host="drawio-plugin" modified="2022-11-23T21:44:17.636Z" agent="5.0 (Windows NT 6.2; Win64; x64) AppleWebKit/537.36 (KHTML, like Gecko) Chrome/98.0.4758.102 Safari/537.36" etag="3py2lqShsj0LDaSV79Ld" version="20.5.3" type="embed"><diagram id="CThO-MG70dP6-aYcsqhX" name="Page-1"><mxGraphModel dx="1069" dy="782" grid="1" gridSize="10" guides="1" tooltips="1" connect="1" arrows="1" fold="1" page="1" pageScale="1" pageWidth="1100" pageHeight="850" math="0" shadow="0"><root><mxCell id="0"/><mxCell id="1" parent="0"/><mxCell id="eaSkclaw6DJ8atPplh6L-14" value="CarBuilder" style="swimlane;fontStyle=1;align=center;verticalAlign=top;childLayout=stackLayout;horizontal=1;startSize=26;horizontalStack=0;resizeParent=1;resizeParentMax=0;resizeLast=0;collapsible=1;marginBottom=0;" parent="1" vertex="1"><mxGeometry x="320" width="160" height="280" as="geometry"/></mxCell><mxCell id="eaSkclaw6DJ8atPplh6L-17" value="+ name: string" style="text;strokeColor=none;fillColor=none;align=left;verticalAlign=top;spacingLeft=4;spacingRight=4;overflow=hidden;rotatable=0;points=[[0,0.5],[1,0.5]];portConstraint=eastwest;" parent="eaSkclaw6DJ8atPplh6L-14" vertex="1"><mxGeometry y="26" width="160" height="26" as="geometry"/></mxCell><mxCell id="eaSkclaw6DJ8atPplh6L-23" value="+ brand: string" style="text;strokeColor=none;fillColor=none;align=left;verticalAlign=top;spacingLeft=4;spacingRight=4;overflow=hidden;rotatable=0;points=[[0,0.5],[1,0.5]];portConstraint=eastwest;" parent="eaSkclaw6DJ8atPplh6L-14" vertex="1"><mxGeometry y="52" width="160" height="26" as="geometry"/></mxCell><mxCell id="eaSkclaw6DJ8atPplh6L-33" value="+ model: string" style="text;strokeColor=none;fillColor=none;align=left;verticalAlign=top;spacingLeft=4;spacingRight=4;overflow=hidden;rotatable=0;points=[[0,0.5],[1,0.5]];portConstraint=eastwest;" parent="eaSkclaw6DJ8atPplh6L-14" vertex="1"><mxGeometry y="78" width="160" height="26" as="geometry"/></mxCell><mxCell id="eaSkclaw6DJ8atPplh6L-34" value="+ path: string" style="text;strokeColor=none;fillColor=none;align=left;verticalAlign=top;spacingLeft=4;spacingRight=4;overflow=hidden;rotatable=0;points=[[0,0.5],[1,0.5]];portConstraint=eastwest;" parent="eaSkclaw6DJ8atPplh6L-14" vertex="1"><mxGeometry y="104" width="160" height="26" as="geometry"/></mxCell><mxCell id="eaSkclaw6DJ8atPplh6L-35" value="+ price: double" style="text;strokeColor=none;fillColor=none;align=left;verticalAlign=top;spacingLeft=4;spacingRight=4;overflow=hidden;rotatable=0;points=[[0,0.5],[1,0.5]];portConstraint=eastwest;" parent="eaSkclaw6DJ8atPplh6L-14" vertex="1"><mxGeometry y="130" width="160" height="26" as="geometry"/></mxCell><mxCell id="no3NTSTjqqvdaShvih0e-57" value="+ year: int" style="text;strokeColor=none;fillColor=none;align=left;verticalAlign=top;spacingLeft=4;spacingRight=4;overflow=hidden;rotatable=0;points=[[0,0.5],[1,0.5]];portConstraint=eastwest;" parent="eaSkclaw6DJ8atPplh6L-14" vertex="1"><mxGeometry y="156" width="160" height="26" as="geometry"/></mxCell><mxCell id="no3NTSTjqqvdaShvih0e-58" value="+ rent: boolean&#10;&#10;" style="text;strokeColor=none;fillColor=none;align=left;verticalAlign=top;spacingLeft=4;spacingRight=4;overflow=hidden;rotatable=0;points=[[0,0.5],[1,0.5]];portConstraint=eastwest;" parent="eaSkclaw6DJ8atPplh6L-14" vertex="1"><mxGeometry y="182" width="160" height="26" as="geometry"/></mxCell><mxCell id="eaSkclaw6DJ8atPplh6L-36" value="+ created: timestamp" style="text;strokeColor=none;fillColor=none;align=left;verticalAlign=top;spacingLeft=4;spacingRight=4;overflow=hidden;rotatable=0;points=[[0,0.5],[1,0.5]];portConstraint=eastwest;" parent="eaSkclaw6DJ8atPplh6L-14" vertex="1"><mxGeometry y="208" width="160" height="26" as="geometry"/></mxCell><mxCell id="eaSkclaw6DJ8atPplh6L-16" value="" style="line;strokeWidth=1;fillColor=none;align=left;verticalAlign=middle;spacingTop=-1;spacingLeft=3;spacingRight=3;rotatable=0;labelPosition=right;points=[];portConstraint=eastwest;" parent="eaSkclaw6DJ8atPplh6L-14" vertex="1"><mxGeometry y="234" width="160" height="8" as="geometry"/></mxCell><mxCell id="eaSkclaw6DJ8atPplh6L-41" value="+ id: long" style="text;strokeColor=none;fillColor=none;align=left;verticalAlign=top;spacingLeft=4;spacingRight=4;overflow=hidden;rotatable=0;points=[[0,0.5],[1,0.5]];portConstraint=eastwest;" parent="eaSkclaw6DJ8atPplh6L-14" vertex="1"><mxGeometry y="242" width="160" height="38" as="geometry"/></mxCell><mxCell id="eaSkclaw6DJ8atPplh6L-18" value="&lt;p style=&quot;margin: 0px ; margin-top: 4px ; text-align: center&quot;&gt;&lt;i&gt;&amp;lt;&amp;lt;Interface&amp;gt;&amp;gt;&lt;/i&gt;&lt;br&gt;&lt;b&gt;Dao&lt;/b&gt;&lt;/p&gt;&lt;hr size=&quot;1&quot;&gt;&lt;p style=&quot;margin: 0px ; margin-left: 4px&quot;&gt;+&amp;nbsp;&lt;span&gt;findAll(): List&amp;lt;T&amp;gt;&lt;/span&gt;&lt;/p&gt;&amp;nbsp;+ findById(long):&amp;nbsp;&lt;span&gt;Optional&amp;lt;T&amp;gt;&lt;/span&gt;&lt;br&gt;&amp;nbsp;+ findByName(string):&amp;nbsp;&lt;span&gt;Optional&amp;lt;User&amp;gt;&lt;/span&gt;&lt;br&gt;&amp;nbsp;+ save(T):&amp;nbsp;&lt;span&gt;boolean&amp;nbsp;&lt;/span&gt;&lt;br&gt;&amp;nbsp;+ edit(&lt;span&gt;T): T;&lt;/span&gt;&lt;br&gt;&amp;nbsp;+&amp;nbsp; delete(long):&amp;nbsp;&lt;span&gt;boolean&lt;/span&gt;&lt;br&gt;&amp;nbsp;+ findAll(string):&amp;nbsp;&lt;span&gt;List&amp;lt;T&amp;gt;&lt;/span&gt;" style="verticalAlign=top;align=left;overflow=fill;fontSize=12;fontFamily=Helvetica;html=1;" parent="1" vertex="1"><mxGeometry x="1239" y="106" width="240" height="160" as="geometry"/></mxCell><mxCell id="eaSkclaw6DJ8atPplh6L-81" style="edgeStyle=orthogonalEdgeStyle;rounded=0;orthogonalLoop=1;jettySize=auto;html=1;entryX=0.5;entryY=1;entryDx=0;entryDy=0;entryPerimeter=0;startArrow=none;" parent="1" source="no3NTSTjqqvdaShvih0e-15" target="eaSkclaw6DJ8atPplh6L-41" edge="1"><mxGeometry relative="1" as="geometry"><mxPoint x="400" y="738" as="targetPoint"/><mxPoint x="400" y="680" as="sourcePoint"/></mxGeometry></mxCell><mxCell id="eaSkclaw6DJ8atPplh6L-117" style="edgeStyle=orthogonalEdgeStyle;rounded=0;orthogonalLoop=1;jettySize=auto;html=1;entryX=0.498;entryY=1.001;entryDx=0;entryDy=0;entryPerimeter=0;" parent="1" target="eaSkclaw6DJ8atPplh6L-102" edge="1"><mxGeometry relative="1" as="geometry"><mxPoint x="920" y="360" as="sourcePoint"/></mxGeometry></mxCell><mxCell id="eaSkclaw6DJ8atPplh6L-94" value="UserBuilder&#10;" style="swimlane;fontStyle=1;align=center;verticalAlign=top;childLayout=stackLayout;horizontal=1;startSize=26;horizontalStack=0;resizeParent=1;resizeParentMax=0;resizeLast=0;collapsible=1;marginBottom=0;" parent="1" vertex="1"><mxGeometry x="840" width="160" height="280" as="geometry"/></mxCell><mxCell id="eaSkclaw6DJ8atPplh6L-96" value="+ name: string" style="text;strokeColor=none;fillColor=none;align=left;verticalAlign=top;spacingLeft=4;spacingRight=4;overflow=hidden;rotatable=0;points=[[0,0.5],[1,0.5]];portConstraint=eastwest;" parent="eaSkclaw6DJ8atPplh6L-94" vertex="1"><mxGeometry y="26" width="160" height="26" as="geometry"/></mxCell><mxCell id="eaSkclaw6DJ8atPplh6L-97" value="+ password: string" style="text;strokeColor=none;fillColor=none;align=left;verticalAlign=top;spacingLeft=4;spacingRight=4;overflow=hidden;rotatable=0;points=[[0,0.5],[1,0.5]];portConstraint=eastwest;" parent="eaSkclaw6DJ8atPplh6L-94" vertex="1"><mxGeometry y="52" width="160" height="26" as="geometry"/></mxCell><mxCell id="eaSkclaw6DJ8atPplh6L-98" value="+ email: string" style="text;strokeColor=none;fillColor=none;align=left;verticalAlign=top;spacingLeft=4;spacingRight=4;overflow=hidden;rotatable=0;points=[[0,0.5],[1,0.5]];portConstraint=eastwest;" parent="eaSkclaw6DJ8atPplh6L-94" vertex="1"><mxGeometry y="78" width="160" height="26" as="geometry"/></mxCell><mxCell id="eaSkclaw6DJ8atPplh6L-99" value="+ token: Token " style="text;strokeColor=none;fillColor=none;align=left;verticalAlign=top;spacingLeft=4;spacingRight=4;overflow=hidden;rotatable=0;points=[[0,0.5],[1,0.5]];portConstraint=eastwest;" parent="eaSkclaw6DJ8atPplh6L-94" vertex="1"><mxGeometry y="104" width="160" height="26" as="geometry"/></mxCell><mxCell id="eaSkclaw6DJ8atPplh6L-100" value="+ role: Role" style="text;strokeColor=none;fillColor=none;align=left;verticalAlign=top;spacingLeft=4;spacingRight=4;overflow=hidden;rotatable=0;points=[[0,0.5],[1,0.5]];portConstraint=eastwest;" parent="eaSkclaw6DJ8atPplh6L-94" vertex="1"><mxGeometry y="130" width="160" height="26" as="geometry"/></mxCell><mxCell id="eaSkclaw6DJ8atPplh6L-103" value="+ locked: boolean" style="text;strokeColor=none;fillColor=none;align=left;verticalAlign=top;spacingLeft=4;spacingRight=4;overflow=hidden;rotatable=0;points=[[0,0.5],[1,0.5]];portConstraint=eastwest;" parent="eaSkclaw6DJ8atPplh6L-94" vertex="1"><mxGeometry y="156" width="160" height="26" as="geometry"/></mxCell><mxCell id="no3NTSTjqqvdaShvih0e-60" value="+ closed: boolean" style="text;strokeColor=none;fillColor=none;align=left;verticalAlign=top;spacingLeft=4;spacingRight=4;overflow=hidden;rotatable=0;points=[[0,0.5],[1,0.5]];portConstraint=eastwest;" parent="eaSkclaw6DJ8atPplh6L-94" vertex="1"><mxGeometry y="182" width="160" height="58" as="geometry"/></mxCell><mxCell id="eaSkclaw6DJ8atPplh6L-101" value="" style="line;strokeWidth=1;fillColor=none;align=left;verticalAlign=middle;spacingTop=-1;spacingLeft=3;spacingRight=3;rotatable=0;labelPosition=right;points=[];portConstraint=eastwest;" parent="eaSkclaw6DJ8atPplh6L-94" vertex="1"><mxGeometry y="240" width="160" height="8" as="geometry"/></mxCell><mxCell id="eaSkclaw6DJ8atPplh6L-102" value="id: bigint" style="text;strokeColor=none;fillColor=none;align=left;verticalAlign=top;spacingLeft=4;spacingRight=4;overflow=hidden;rotatable=0;points=[[0,0.5],[1,0.5]];portConstraint=eastwest;" parent="eaSkclaw6DJ8atPplh6L-94" vertex="1"><mxGeometry y="248" width="160" height="32" as="geometry"/></mxCell><mxCell id="hGbTMcmio_HzMTaiVLR9-2" style="edgeStyle=orthogonalEdgeStyle;rounded=0;orthogonalLoop=1;jettySize=auto;html=1;entryX=0.415;entryY=1.003;entryDx=0;entryDy=0;entryPerimeter=0;" parent="1" source="no3NTSTjqqvdaShvih0e-2" target="no3NTSTjqqvdaShvih0e-16" edge="1"><mxGeometry relative="1" as="geometry"><Array as="points"><mxPoint x="643" y="740"/></Array></mxGeometry></mxCell><mxCell id="no3NTSTjqqvdaShvih0e-2" value="&lt;p style=&quot;margin: 0px ; margin-top: 4px ; text-align: center&quot;&gt;&lt;b&gt;user_orders&lt;/b&gt;&lt;/p&gt;&lt;hr size=&quot;1&quot;&gt;&lt;p style=&quot;margin: 0 0 0 4px ; line-height: 1.6&quot;&gt; car_id: integer&lt;/p&gt;&lt;p style=&quot;margin: 0 0 0 4px ; line-height: 1.6&quot;&gt;user_id: integer&lt;br&gt;&lt;/p&gt;&lt;hr size=&quot;1&quot;&gt;&lt;p style=&quot;margin: 0 0 0 4px ; line-height: 1.6&quot;&gt; order_id: integer&lt;br&gt;&lt;/p&gt;" style="verticalAlign=top;align=left;overflow=fill;fontSize=14;fontFamily=Helvetica;html=1;rounded=0;shadow=0;comic=0;labelBackgroundColor=none;strokeWidth=1;" parent="1" vertex="1"><mxGeometry x="840" y="680" width="160" height="120" as="geometry"/></mxCell><mxCell id="no3NTSTjqqvdaShvih0e-4" value="" style="html=1;rounded=1;edgeStyle=orthogonalEdgeStyle;dashed=0;startArrow=none;endArrow=block;endSize=12;strokeColor=#595959;entryX=0.5;entryY=1;entryDx=0;entryDy=0;" parent="1" target="no3NTSTjqqvdaShvih0e-17" edge="1"><mxGeometry width="50" height="50" relative="1" as="geometry"><Array as="points"><mxPoint x="920" y="685"/><mxPoint x="920" y="685"/></Array><mxPoint x="920" y="670" as="sourcePoint"/><mxPoint x="920" y="610" as="targetPoint"/></mxGeometry></mxCell><mxCell id="no3NTSTjqqvdaShvih0e-62" style="edgeStyle=orthogonalEdgeStyle;rounded=0;orthogonalLoop=1;jettySize=auto;html=1;exitX=0.5;exitY=0;exitDx=0;exitDy=0;entryX=0.5;entryY=1;entryDx=0;entryDy=0;" parent="1" source="no3NTSTjqqvdaShvih0e-16" target="no3NTSTjqqvdaShvih0e-59" edge="1"><mxGeometry relative="1" as="geometry"/></mxCell><mxCell id="no3NTSTjqqvdaShvih0e-16" value="&lt;p style=&quot;margin:0px;margin-top:4px;text-align:center;&quot;&gt;&lt;b&gt;orders&lt;/b&gt;&lt;/p&gt;&lt;hr size=&quot;1&quot;&gt;&lt;p style=&quot;margin:0 0 0 4px;line-height:1.6;&quot;&gt;+ user_id: bigint&lt;br&gt;+ car_id: bigint&lt;br&gt;+&amp;nbsp;payment: double precision&lt;br&gt;+&amp;nbsp;driver: boolean&lt;br&gt;+&amp;nbsp;rejected: boolean&lt;br&gt;+&amp;nbsp;closed: boolean&lt;br&gt;+&amp;nbsp;created: timestamp&lt;br&gt;+&amp;nbsp;damage: varchar(255)&lt;br&gt;+&amp;nbsp;passport: varchar(50)&lt;br&gt;+&amp;nbsp;phone: varchar(50)&lt;br&gt;+&amp;nbsp;term: timestamp&lt;/p&gt;&lt;hr size=&quot;1&quot;&gt;&amp;nbsp;+&amp;nbsp;&lt;span style=&quot;background-color: initial;&quot;&gt;order_id: bigint&lt;/span&gt;" style="verticalAlign=top;align=left;overflow=fill;fontSize=14;fontFamily=Helvetica;html=1;rounded=0;shadow=0;comic=0;labelBackgroundColor=none;strokeWidth=1;" parent="1" vertex="1"><mxGeometry x="560" y="320" width="200" height="360" as="geometry"/></mxCell><mxCell id="no3NTSTjqqvdaShvih0e-17" value="&lt;p style=&quot;margin:0px;margin-top:4px;text-align:center;&quot;&gt;&lt;b&gt;users&lt;/b&gt;&lt;/p&gt;&lt;hr size=&quot;1&quot;&gt;+&amp;nbsp;&lt;span style=&quot;background-color: initial;&quot;&gt;email: varchar(255)&lt;/span&gt;&lt;br&gt;&lt;p style=&quot;margin:0 0 0 4px;line-height:1.6;&quot;&gt;+&amp;nbsp;name: varchar(255)&lt;br&gt;+&amp;nbsp;password: varchar(255)&lt;br&gt;+&amp;nbsp;active: boolean&lt;br&gt;+&amp;nbsp;language: varchar(10)&lt;br&gt;+&amp;nbsp;role: varchar(50)&lt;br&gt;+&amp;nbsp;closed: boolean&lt;/p&gt;&lt;hr size=&quot;1&quot;&gt;&lt;p style=&quot;margin:0 0 0 4px;line-height:1.6;&quot;&gt;+ id: bigint&lt;/p&gt;" style="verticalAlign=top;align=left;overflow=fill;fontSize=14;fontFamily=Helvetica;html=1;rounded=0;shadow=0;comic=0;labelBackgroundColor=none;strokeWidth=1;" parent="1" vertex="1"><mxGeometry x="840" y="319" width="160" height="240" as="geometry"/></mxCell><mxCell id="no3NTSTjqqvdaShvih0e-23" value="" style="html=1;rounded=1;edgeStyle=orthogonalEdgeStyle;dashed=0;startArrow=none;endArrow=block;endSize=12;strokeColor=#595959;entryX=0.5;entryY=1;entryDx=0;entryDy=0;" parent="1" source="no3NTSTjqqvdaShvih0e-2" target="no3NTSTjqqvdaShvih0e-15" edge="1"><mxGeometry width="50" height="50" relative="1" as="geometry"><Array as="points"><mxPoint x="400" y="800"/></Array><mxPoint x="780" y="836" as="sourcePoint"/><mxPoint x="240" y="930" as="targetPoint"/></mxGeometry></mxCell><mxCell id="no3NTSTjqqvdaShvih0e-45" value="" style="html=1;rounded=1;edgeStyle=orthogonalEdgeStyle;dashed=0;startArrow=none;endArrow=block;endSize=12;strokeColor=#008200;exitX=0.500;exitY=0.002;exitDx=0;exitDy=0;entryX=0.500;entryY=1.002;entryDx=0;entryDy=0;" parent="1" source="no3NTSTjqqvdaShvih0e-25" edge="1"><mxGeometry width="50" height="50" relative="1" as="geometry"><Array as="points"><mxPoint x="1189" y="284"/><mxPoint x="1343" y="284"/></Array><mxPoint x="1343" y="266" as="targetPoint"/></mxGeometry></mxCell><mxCell id="no3NTSTjqqvdaShvih0e-52" value="" style="html=1;rounded=1;edgeStyle=orthogonalEdgeStyle;dashed=0;startArrow=none;endArrow=block;endSize=12;strokeColor=#008200;exitX=0.500;exitY=0.002;exitDx=0;exitDy=0;entryX=0.500;entryY=1.002;entryDx=0;entryDy=0;" parent="1" source="no3NTSTjqqvdaShvih0e-36" edge="1"><mxGeometry width="50" height="50" relative="1" as="geometry"><Array as="points"><mxPoint x="1504" y="284"/><mxPoint x="1343" y="284"/></Array><mxPoint x="1343" y="266" as="targetPoint"/></mxGeometry></mxCell><mxCell id="no3NTSTjqqvdaShvih0e-54" value="" style="html=1;rounded=1;edgeStyle=orthogonalEdgeStyle;dashed=0;startArrow=none;endArrow=block;endSize=12;strokeColor=#008200;exitX=0.500;exitY=0.002;exitDx=0;exitDy=0;entryX=0.500;entryY=1.002;entryDx=0;entryDy=0;" parent="1" source="no3NTSTjqqvdaShvih0e-40" edge="1"><mxGeometry width="50" height="50" relative="1" as="geometry"><Array as="points"><mxPoint x="1354" y="310"/><mxPoint x="1343" y="310"/></Array><mxPoint x="1343" y="266" as="targetPoint"/></mxGeometry></mxCell><mxCell id="no3NTSTjqqvdaShvih0e-59" value="&lt;p style=&quot;margin: 0px ; margin-top: 4px ; text-align: center&quot;&gt;&lt;b&gt;orderBuilder&lt;/b&gt;&lt;/p&gt;&lt;hr size=&quot;1&quot;&gt;&lt;p style=&quot;margin: 0 0 0 4px ; line-height: 1.6&quot;&gt; user_id: bigint&lt;br&gt; car_id: bigint&lt;br&gt; payment: double precision&lt;br&gt; driver: boolean&lt;br&gt; rejected: boolean&lt;br&gt; closed: boolean&lt;br&gt; damage: varchar(255)&lt;br&gt; passport: varchar(50)&lt;br&gt;term: timestamp&lt;/p&gt;&lt;hr size=&quot;1&quot;&gt;&lt;p style=&quot;margin: 0 0 0 4px ; line-height: 1.6&quot;&gt; order_id: bigint&lt;/p&gt;" style="verticalAlign=top;align=left;overflow=fill;fontSize=14;fontFamily=Helvetica;html=1;rounded=0;shadow=0;comic=0;labelBackgroundColor=none;strokeWidth=1;" parent="1" vertex="1"><mxGeometry x="560" width="200" height="280" as="geometry"/></mxCell><mxCell id="no3NTSTjqqvdaShvih0e-63" value="Serializable" style="html=1;" parent="1" vertex="1"><mxGeometry x="840" y="600" width="160" height="40" as="geometry"/></mxCell><mxCell id="no3NTSTjqqvdaShvih0e-64" value="Serializable" style="html=1;" parent="1" vertex="1"><mxGeometry x="560" y="720" width="200" height="38" as="geometry"/></mxCell><mxCell id="no3NTSTjqqvdaShvih0e-65" value="Serializable" style="html=1;" parent="1" vertex="1"><mxGeometry x="320" y="720" width="160" height="38" as="geometry"/></mxCell><mxCell id="no3NTSTjqqvdaShvih0e-15" value="&lt;p style=&quot;margin: 0px ; margin-top: 4px ; text-align: center&quot;&gt;&lt;b&gt;cars&lt;/b&gt;&lt;/p&gt;&lt;hr size=&quot;1&quot;&gt;&lt;p style=&quot;margin: 0 0 0 4px ; line-height: 1.6&quot;&gt;+&amp;nbsp; name:&amp;nbsp;&lt;span style=&quot;font-size: 12px;&quot;&gt;string&lt;/span&gt;&lt;br&gt;+&amp;nbsp; brand:&amp;nbsp;&lt;span style=&quot;font-size: 12px;&quot;&gt;string&lt;/span&gt;&lt;br&gt;+ model:&amp;nbsp;&lt;span style=&quot;font-size: 12px;&quot;&gt;string&lt;/span&gt;&lt;br&gt;+ price: double precision&lt;br&gt;+ year: integer&lt;br&gt;+ path: text&lt;br&gt;+ date: timestamp&lt;br&gt;+ cost: double precision&lt;br&gt;+ rent: boolean&lt;/p&gt;&lt;hr size=&quot;1&quot;&gt;&lt;p style=&quot;margin: 0 0 0 4px ; line-height: 1.6&quot;&gt;+ id: bigint&lt;/p&gt;" style="verticalAlign=top;align=left;overflow=fill;fontSize=14;fontFamily=Helvetica;html=1;rounded=0;shadow=0;comic=0;labelBackgroundColor=none;strokeWidth=1;" parent="1" vertex="1"><mxGeometry x="320" y="320" width="160" height="280" as="geometry"/></mxCell><mxCell id="no3NTSTjqqvdaShvih0e-66" value="" style="edgeStyle=orthogonalEdgeStyle;rounded=0;orthogonalLoop=1;jettySize=auto;html=1;entryX=0.5;entryY=1;entryDx=0;entryDy=0;entryPerimeter=0;endArrow=none;" parent="1" target="no3NTSTjqqvdaShvih0e-15" edge="1"><mxGeometry relative="1" as="geometry"><mxPoint x="400" y="280" as="targetPoint"/><mxPoint x="400" y="680" as="sourcePoint"/></mxGeometry></mxCell><mxCell id="hGbTMcmio_HzMTaiVLR9-3" value="" style="group" parent="1" vertex="1" connectable="0"><mxGeometry x="1120" y="320" width="480" height="120" as="geometry"/></mxCell><mxCell id="no3NTSTjqqvdaShvih0e-25" value="&lt;p style=&quot;margin:0px;margin-top:4px;text-align:center;&quot;&gt;&lt;i&gt;&amp;lt;&amp;lt;interface&amp;gt;&amp;gt;&lt;/i&gt;&lt;br/&gt;&lt;b&gt;CarDao&lt;/b&gt;&lt;/p&gt;&lt;hr size=&quot;1&quot;/&gt;" style="verticalAlign=top;align=left;overflow=fill;fontSize=14;fontFamily=Helvetica;html=1;rounded=0;shadow=0;comic=0;labelBackgroundColor=none;strokeWidth=1;" parent="hGbTMcmio_HzMTaiVLR9-3" vertex="1"><mxGeometry width="124.98905908096279" height="39.272727272727266" as="geometry"/></mxCell><mxCell id="no3NTSTjqqvdaShvih0e-31" value="&lt;p style=&quot;margin:0px;margin-top:4px;text-align:center;&quot;&gt;&lt;b&gt;JdbcCarDao&lt;/b&gt;&lt;/p&gt;&lt;hr size=&quot;1&quot;/&gt;" style="verticalAlign=top;align=left;overflow=fill;fontSize=14;fontFamily=Helvetica;html=1;rounded=0;shadow=0;comic=0;labelBackgroundColor=none;strokeWidth=1;" parent="hGbTMcmio_HzMTaiVLR9-3" vertex="1"><mxGeometry x="4.2013129102844635" y="86.18181818181817" width="136.54266958424506" height="33.81818181818181" as="geometry"/></mxCell><mxCell id="no3NTSTjqqvdaShvih0e-33" value="&lt;p style=&quot;margin:0px;margin-top:4px;text-align:center;&quot;&gt;&lt;b&gt;JdbcOrderDao&lt;/b&gt;&lt;/p&gt;&lt;hr size=&quot;1&quot;/&gt;" style="verticalAlign=top;align=left;overflow=fill;fontSize=14;fontFamily=Helvetica;html=1;rounded=0;shadow=0;comic=0;labelBackgroundColor=none;strokeWidth=1;" parent="hGbTMcmio_HzMTaiVLR9-3" vertex="1"><mxGeometry x="326.65207877461705" y="86.18181818181817" width="153.34792122538292" height="33.81818181818181" as="geometry"/></mxCell><mxCell id="no3NTSTjqqvdaShvih0e-34" value="&lt;p style=&quot;margin:0px;margin-top:4px;text-align:center;&quot;&gt;&lt;b&gt;JdbcUserDao&lt;/b&gt;&lt;/p&gt;&lt;hr size=&quot;1&quot;/&gt;" style="verticalAlign=top;align=left;overflow=fill;fontSize=14;fontFamily=Helvetica;html=1;rounded=0;shadow=0;comic=0;labelBackgroundColor=none;strokeWidth=1;" parent="hGbTMcmio_HzMTaiVLR9-3" vertex="1"><mxGeometry x="161.75054704595183" y="86.18181818181817" width="143.89496717724288" height="33.81818181818181" as="geometry"/></mxCell><mxCell id="no3NTSTjqqvdaShvih0e-36" value="&lt;p style=&quot;margin:0px;margin-top:4px;text-align:center;&quot;&gt;&lt;i&gt;&amp;lt;&amp;lt;interface&amp;gt;&amp;gt;&lt;/i&gt;&lt;br/&gt;&lt;b&gt;OrderDao&lt;/b&gt;&lt;/p&gt;&lt;hr size=&quot;1&quot;/&gt;" style="verticalAlign=top;align=left;overflow=fill;fontSize=14;fontFamily=Helvetica;html=1;rounded=0;shadow=0;comic=0;labelBackgroundColor=none;strokeWidth=1;" parent="hGbTMcmio_HzMTaiVLR9-3" vertex="1"><mxGeometry x="342.40700218818375" width="121.83807439824945" height="39.272727272727266" as="geometry"/></mxCell><mxCell id="no3NTSTjqqvdaShvih0e-40" value="&lt;p style=&quot;margin:0px;margin-top:4px;text-align:center;&quot;&gt;&lt;i&gt;&amp;lt;&amp;lt;interface&amp;gt;&amp;gt;&lt;/i&gt;&lt;br/&gt;&lt;b&gt;UserDao&lt;/b&gt;&lt;/p&gt;&lt;hr size=&quot;1&quot;/&gt;" style="verticalAlign=top;align=left;overflow=fill;fontSize=14;fontFamily=Helvetica;html=1;rounded=0;shadow=0;comic=0;labelBackgroundColor=none;strokeWidth=1;" parent="hGbTMcmio_HzMTaiVLR9-3" vertex="1"><mxGeometry x="177.5054704595186" width="112.3851203501094" height="39.272727272727266" as="geometry"/></mxCell><mxCell id="no3NTSTjqqvdaShvih0e-48" value="" style="html=1;rounded=1;edgeStyle=orthogonalEdgeStyle;dashed=1;startArrow=none;endArrow=block;endSize=12;strokeColor=#008200;exitX=0.500;exitY=0.002;exitDx=0;exitDy=0;entryX=0.500;entryY=1.002;entryDx=0;entryDy=0;" parent="hGbTMcmio_HzMTaiVLR9-3" source="no3NTSTjqqvdaShvih0e-31" target="no3NTSTjqqvdaShvih0e-25" edge="1"><mxGeometry width="50" height="50" relative="1" as="geometry"><Array as="points"/></mxGeometry></mxCell><mxCell id="no3NTSTjqqvdaShvih0e-50" value="" style="html=1;rounded=1;edgeStyle=orthogonalEdgeStyle;dashed=1;startArrow=none;endArrow=block;endSize=12;strokeColor=#008200;exitX=0.500;exitY=0.002;exitDx=0;exitDy=0;entryX=0.500;entryY=1.002;entryDx=0;entryDy=0;" parent="hGbTMcmio_HzMTaiVLR9-3" source="no3NTSTjqqvdaShvih0e-33" target="no3NTSTjqqvdaShvih0e-36" edge="1"><mxGeometry width="50" height="50" relative="1" as="geometry"><Array as="points"/></mxGeometry></mxCell><mxCell id="no3NTSTjqqvdaShvih0e-51" value="" style="html=1;rounded=1;edgeStyle=orthogonalEdgeStyle;dashed=1;startArrow=none;endArrow=block;endSize=12;strokeColor=#008200;exitX=0.500;exitY=0.002;exitDx=0;exitDy=0;entryX=0.500;entryY=1.002;entryDx=0;entryDy=0;" parent="hGbTMcmio_HzMTaiVLR9-3" source="no3NTSTjqqvdaShvih0e-34" target="no3NTSTjqqvdaShvih0e-40" edge="1"><mxGeometry width="50" height="50" relative="1" as="geometry"><Array as="points"/></mxGeometry></mxCell><mxCell id="hGbTMcmio_HzMTaiVLR9-4" value="" style="group" parent="1" vertex="1" connectable="0"><mxGeometry x="1120" y="480" width="480" height="113.06" as="geometry"/></mxCell><mxCell id="no3NTSTjqqvdaShvih0e-28" value="&lt;p style=&quot;margin:0px;margin-top:4px;text-align:center;&quot;&gt;&lt;b&gt;CarService&lt;/b&gt;&lt;/p&gt;&lt;hr size=&quot;1&quot;/&gt;" style="verticalAlign=top;align=left;overflow=fill;fontSize=14;fontFamily=Helvetica;html=1;rounded=0;shadow=0;comic=0;labelBackgroundColor=none;strokeWidth=1;" parent="hGbTMcmio_HzMTaiVLR9-4" vertex="1"><mxGeometry x="357.6873661670235" y="81.19763636363636" width="122.31263383297645" height="31.862363636363632" as="geometry"/></mxCell><mxCell id="no3NTSTjqqvdaShvih0e-30" value="&lt;p style=&quot;margin:0px;margin-top:4px;text-align:center;&quot;&gt;&lt;b&gt;DbManager&lt;/b&gt;&lt;/p&gt;&lt;hr size=&quot;1&quot;/&gt;" style="verticalAlign=top;align=left;overflow=fill;fontSize=14;fontFamily=Helvetica;html=1;rounded=0;shadow=0;comic=0;labelBackgroundColor=none;strokeWidth=1;" parent="hGbTMcmio_HzMTaiVLR9-4" vertex="1"><mxGeometry x="18.501070663811564" width="132.59100642398286" height="31.862363636363632" as="geometry"/></mxCell><mxCell id="no3NTSTjqqvdaShvih0e-32" value="&lt;p style=&quot;margin:0px;margin-top:4px;text-align:center;&quot;&gt;&lt;b&gt;JdbcCarTemplate&lt;/b&gt;&lt;/p&gt;&lt;hr size=&quot;1&quot;/&gt;" style="verticalAlign=top;align=left;overflow=fill;fontSize=14;fontFamily=Helvetica;html=1;rounded=0;shadow=0;comic=0;labelBackgroundColor=none;strokeWidth=1;" parent="hGbTMcmio_HzMTaiVLR9-4" vertex="1"><mxGeometry y="81.19763636363636" width="169.59314775160598" height="31.862363636363632" as="geometry"/></mxCell><mxCell id="no3NTSTjqqvdaShvih0e-39" value="&lt;p style=&quot;margin:0px;margin-top:4px;text-align:center;&quot;&gt;&lt;i&gt;&amp;lt;&amp;lt;interface&amp;gt;&amp;gt;&lt;/i&gt;&lt;br/&gt;&lt;b&gt;Service&lt;T&gt;&lt;/b&gt;&lt;/p&gt;&lt;hr size=&quot;1&quot;/&gt;" style="verticalAlign=top;align=left;overflow=fill;fontSize=14;fontFamily=Helvetica;html=1;rounded=0;shadow=0;comic=0;labelBackgroundColor=none;strokeWidth=1;" parent="hGbTMcmio_HzMTaiVLR9-4" vertex="1"><mxGeometry x="280.5995717344754" width="130.5353319057816" height="37.00145454545454" as="geometry"/></mxCell><mxCell id="no3NTSTjqqvdaShvih0e-44" value="&lt;p style=&quot;margin:0px;margin-top:4px;text-align:center;&quot;&gt;&lt;b&gt;UserService&lt;/b&gt;&lt;/p&gt;&lt;hr size=&quot;1&quot;/&gt;" style="verticalAlign=top;align=left;overflow=fill;fontSize=14;fontFamily=Helvetica;html=1;rounded=0;shadow=0;comic=0;labelBackgroundColor=none;strokeWidth=1;" parent="hGbTMcmio_HzMTaiVLR9-4" vertex="1"><mxGeometry x="207.62312633832977" y="81.19763636363636" width="129.50749464668095" height="31.862363636363632" as="geometry"/></mxCell><mxCell id="no3NTSTjqqvdaShvih0e-47" value="" style="html=1;rounded=1;edgeStyle=orthogonalEdgeStyle;dashed=1;startArrow=none;endArrow=block;endSize=12;strokeColor=#008200;exitX=0.500;exitY=0.002;exitDx=0;exitDy=0;entryX=0.500;entryY=1.002;entryDx=0;entryDy=0;" parent="hGbTMcmio_HzMTaiVLR9-4" source="no3NTSTjqqvdaShvih0e-28" target="no3NTSTjqqvdaShvih0e-39" edge="1"><mxGeometry width="50" height="50" relative="1" as="geometry"><Array as="points"><mxPoint x="419.3576017130621" y="55.50218181818181"/><mxPoint x="345.35331905781584" y="55.50218181818181"/></Array></mxGeometry></mxCell><mxCell id="no3NTSTjqqvdaShvih0e-49" value="" style="html=1;rounded=1;edgeStyle=orthogonalEdgeStyle;dashed=0;startArrow=none;endArrow=block;endSize=12;strokeColor=#000082;exitX=0.500;exitY=0.002;exitDx=0;exitDy=0;entryX=0.500;entryY=1.002;entryDx=0;entryDy=0;" parent="hGbTMcmio_HzMTaiVLR9-4" source="no3NTSTjqqvdaShvih0e-32" target="no3NTSTjqqvdaShvih0e-30" edge="1"><mxGeometry width="50" height="50" relative="1" as="geometry"><Array as="points"/></mxGeometry></mxCell><mxCell id="no3NTSTjqqvdaShvih0e-56" value="" style="html=1;rounded=1;edgeStyle=orthogonalEdgeStyle;dashed=1;startArrow=none;endArrow=block;endSize=12;strokeColor=#008200;exitX=0.500;exitY=0.002;exitDx=0;exitDy=0;entryX=0.500;entryY=1.002;entryDx=0;entryDy=0;" parent="hGbTMcmio_HzMTaiVLR9-4" source="no3NTSTjqqvdaShvih0e-44" target="no3NTSTjqqvdaShvih0e-39" edge="1"><mxGeometry width="50" height="50" relative="1" as="geometry"><Array as="points"><mxPoint x="272.37687366167023" y="55.50218181818181"/><mxPoint x="345.35331905781584" y="55.50218181818181"/></Array></mxGeometry></mxCell><mxCell id="hGbTMcmio_HzMTaiVLR9-5" value="" style="group" parent="1" vertex="1" connectable="0"><mxGeometry x="1120" y="680" width="480" height="120" as="geometry"/></mxCell><mxCell id="no3NTSTjqqvdaShvih0e-26" value="&lt;p style=&quot;margin:0px;margin-top:4px;text-align:center;&quot;&gt;&lt;b&gt;CarMapper&lt;/b&gt;&lt;/p&gt;&lt;hr size=&quot;1&quot;/&gt;" style="verticalAlign=top;align=left;overflow=fill;fontSize=14;fontFamily=Helvetica;html=1;rounded=0;shadow=0;comic=0;labelBackgroundColor=none;strokeWidth=1;" parent="hGbTMcmio_HzMTaiVLR9-5" vertex="1"><mxGeometry x="339.27272727272725" y="86.18181818181817" width="140.72727272727272" height="33.81818181818181" as="geometry"/></mxCell><mxCell id="no3NTSTjqqvdaShvih0e-35" value="&lt;p style=&quot;margin:0px;margin-top:4px;text-align:center;&quot;&gt;&lt;b&gt;Mapper&lt;T&gt;&lt;/b&gt;&lt;/p&gt;&lt;hr size=&quot;1&quot;/&gt;" style="verticalAlign=top;align=left;overflow=fill;fontSize=14;fontFamily=Helvetica;html=1;rounded=0;shadow=0;comic=0;labelBackgroundColor=none;strokeWidth=1;" parent="hGbTMcmio_HzMTaiVLR9-5" vertex="1"><mxGeometry x="169.09090909090907" width="144" height="33.81818181818181" as="geometry"/></mxCell><mxCell id="no3NTSTjqqvdaShvih0e-37" value="&lt;p style=&quot;margin:0px;margin-top:4px;text-align:center;&quot;&gt;&lt;b&gt;OrderMapper&lt;/b&gt;&lt;/p&gt;&lt;hr size=&quot;1&quot;/&gt;" style="verticalAlign=top;align=left;overflow=fill;fontSize=14;fontFamily=Helvetica;html=1;rounded=0;shadow=0;comic=0;labelBackgroundColor=none;strokeWidth=1;" parent="hGbTMcmio_HzMTaiVLR9-5" vertex="1"><mxGeometry x="164.72727272727272" y="86.18181818181817" width="152.72727272727272" height="33.81818181818181" as="geometry"/></mxCell><mxCell id="no3NTSTjqqvdaShvih0e-41" value="&lt;p style=&quot;margin:0px;margin-top:4px;text-align:center;&quot;&gt;&lt;b&gt;UserMapper&lt;/b&gt;&lt;/p&gt;&lt;hr size=&quot;1&quot;/&gt;" style="verticalAlign=top;align=left;overflow=fill;fontSize=14;fontFamily=Helvetica;html=1;rounded=0;shadow=0;comic=0;labelBackgroundColor=none;strokeWidth=1;" parent="hGbTMcmio_HzMTaiVLR9-5" vertex="1"><mxGeometry y="86.18181818181817" width="142.9090909090909" height="33.81818181818181" as="geometry"/></mxCell><mxCell id="no3NTSTjqqvdaShvih0e-46" value="" style="html=1;rounded=1;edgeStyle=orthogonalEdgeStyle;dashed=0;startArrow=none;endArrow=block;endSize=12;strokeColor=#000082;exitX=0.500;exitY=0.002;exitDx=0;exitDy=0;entryX=0.500;entryY=1.002;entryDx=0;entryDy=0;" parent="hGbTMcmio_HzMTaiVLR9-5" target="no3NTSTjqqvdaShvih0e-35" edge="1"><mxGeometry width="50" height="50" relative="1" as="geometry"><Array as="points"><mxPoint x="406.9090909090909" y="58.90909090909091"/><mxPoint x="241.09090909090907" y="58.90909090909091"/></Array><mxPoint x="409.6363636363635" y="86.18181818181802" as="sourcePoint"/></mxGeometry></mxCell><mxCell id="no3NTSTjqqvdaShvih0e-53" value="" style="html=1;rounded=1;edgeStyle=orthogonalEdgeStyle;dashed=0;startArrow=none;endArrow=block;endSize=12;strokeColor=#000082;entryX=0.500;entryY=1.002;entryDx=0;entryDy=0;" parent="hGbTMcmio_HzMTaiVLR9-5" target="no3NTSTjqqvdaShvih0e-35" edge="1"><mxGeometry width="50" height="50" relative="1" as="geometry"><Array as="points"/><mxPoint x="241" y="86.18181818181802" as="sourcePoint"/></mxGeometry></mxCell><mxCell id="no3NTSTjqqvdaShvih0e-55" value="" style="html=1;rounded=1;edgeStyle=orthogonalEdgeStyle;dashed=0;startArrow=none;endArrow=block;endSize=12;strokeColor=#000082;exitX=0.500;exitY=0.002;exitDx=0;exitDy=0;entryX=0.500;entryY=1.002;entryDx=0;entryDy=0;" parent="hGbTMcmio_HzMTaiVLR9-5" target="no3NTSTjqqvdaShvih0e-35" edge="1"><mxGeometry width="50" height="50" relative="1" as="geometry"><Array as="points"><mxPoint x="72" y="58.90909090909091"/><mxPoint x="241.09090909090907" y="58.90909090909091"/></Array><mxPoint x="71.4545454545455" y="86.18181818181802" as="sourcePoint"/></mxGeometry></mxCell></root></mxGraphModel></diagram></mxfile>